<svg width="125" height="22" viewBox="0 0 125 22" fill="none" xmlns="http://www.w3.org/2000/svg">
<g clip-path="url(#clip0_617_463)">
<path d="M11.1701 9.84005C11.2774 11.6515 10.8007 13.4496 9.81014 14.9701C9.26939 15.6738 8.56235 16.2322 7.75249 16.5953C6.94263 16.9583 6.0553 17.1146 5.17014 17.05H0.950141C0.823548 17.0695 0.694175 17.0594 0.572144 17.0205C0.450113 16.9816 0.338737 16.915 0.246732 16.8259C0.154728 16.7368 0.0845904 16.6276 0.0418106 16.5069C-0.00096922 16.3862 -0.0152315 16.2572 0.000140744 16.13V3.65005C-0.00704372 3.49971 0.0198 3.34969 0.0786701 3.21117C0.13754 3.07266 0.226918 2.94921 0.340141 2.85004C0.607939 2.63437 0.947047 2.52728 1.29014 2.55004H5.17014C6.00395 2.52029 6.83319 2.6856 7.59186 3.03281C8.35052 3.38003 9.01765 3.89956 9.54014 4.55004C10.6728 6.07491 11.2481 7.94215 11.1701 9.84005ZM9.34014 9.65005C9.44536 8.17659 9.05846 6.70989 8.24014 5.48005C7.77315 4.95495 7.19015 4.54596 6.53745 4.28557C5.88476 4.02519 5.18034 3.92058 4.48014 3.98005H1.48014V15.62H4.63014C5.77967 15.6922 6.91239 15.3158 7.79014 14.57C8.82347 13.6034 9.34014 11.9634 9.34014 9.65005Z" fill="#134E4A"/>
<path d="M14.9399 3.42002C14.944 3.56429 14.9187 3.70788 14.8654 3.84201C14.8121 3.97613 14.7319 4.09796 14.6299 4.20002C14.5197 4.30581 14.3896 4.38858 14.2471 4.44352C14.1046 4.49846 13.9525 4.52446 13.7999 4.52002C13.6501 4.52522 13.5009 4.4995 13.3615 4.44444C13.2221 4.38938 13.0956 4.30617 12.9899 4.20002C12.8811 4.10208 12.7952 3.98145 12.7382 3.84668C12.6812 3.7119 12.6544 3.56626 12.6599 3.42002C12.6567 3.27113 12.6844 3.12319 12.7412 2.98552C12.798 2.84784 12.8827 2.72341 12.9899 2.62002C13.0975 2.51709 13.2246 2.43666 13.3636 2.38343C13.5027 2.33021 13.651 2.30525 13.7999 2.31002C14.1061 2.30267 14.4034 2.41371 14.6299 2.62002C14.7325 2.7258 14.8128 2.85112 14.8661 2.98855C14.9193 3.12598 14.9444 3.27271 14.9399 3.42002ZM14.7299 16.21C14.7564 16.3409 14.7513 16.4761 14.7151 16.6046C14.6789 16.7331 14.6126 16.8511 14.5217 16.9489C14.4308 17.0466 14.3179 17.1213 14.1924 17.1667C14.0668 17.2121 13.9323 17.227 13.7999 17.21C13.6736 17.2185 13.547 17.1986 13.4293 17.1519C13.3117 17.1052 13.206 17.0328 13.1199 16.94C13.0321 16.849 12.9644 16.7405 12.9213 16.6217C12.8783 16.5028 12.8607 16.3761 12.8699 16.25V7.01002C12.8699 6.37002 13.1799 6.01002 13.7999 6.01002C14.0567 6.00032 14.3073 6.08984 14.4999 6.26002C14.66 6.46491 14.7415 6.72027 14.7299 6.98002V16.21Z" fill="#134E4A"/>
<path d="M26.2199 16.27C26.2633 16.9513 26.1638 17.6341 25.9279 18.2747C25.692 18.9153 25.3248 19.4995 24.8499 19.99C23.8331 20.8966 22.5006 21.3671 21.1399 21.3C20.1332 21.2961 19.1397 21.0708 18.2299 20.64C17.2899 20.22 16.8199 19.77 16.8199 19.31C16.817 19.0947 16.8837 18.8843 17.0099 18.71C17.0828 18.6268 17.1741 18.5618 17.2765 18.5201C17.3789 18.4784 17.4897 18.4613 17.5999 18.47C18.098 18.6018 18.5709 18.8147 18.9999 19.1C19.6928 19.513 20.4833 19.7339 21.2899 19.74C21.739 19.774 22.1897 19.7011 22.6051 19.5272C23.0206 19.3534 23.3889 19.0836 23.6799 18.74C24.1527 18.118 24.3932 17.3505 24.3599 16.57V15.65C24.0596 16.1211 23.6428 16.5068 23.1499 16.77C22.6344 17.06 22.0513 17.2083 21.4599 17.2C20.7581 17.2219 20.0608 17.0796 19.4237 16.7844C18.7865 16.4893 18.2271 16.0495 17.7899 15.5C16.9585 14.3772 16.5098 13.0171 16.5098 11.62C16.5098 10.2229 16.9585 8.86274 17.7899 7.73996C18.2276 7.18526 18.7897 6.7414 19.4307 6.44433C20.0718 6.14725 20.7738 6.0053 21.4799 6.02997C22.0257 6.03577 22.5638 6.1594 23.0575 6.3924C23.5511 6.6254 23.9885 6.96226 24.3399 7.37996V6.87996C24.3311 6.75224 24.3539 6.62431 24.4062 6.50747C24.4585 6.39062 24.5388 6.28845 24.6399 6.20997C24.8394 6.06369 25.0828 5.98965 25.3299 5.99997C25.5543 5.99843 25.7727 6.07239 25.9499 6.20997C26.0383 6.29637 26.1066 6.40122 26.1498 6.51703C26.193 6.63285 26.2101 6.75677 26.1999 6.87996L26.2199 16.27ZM24.5499 11.59C24.5854 10.6404 24.3495 9.70033 23.8699 8.87996C23.6126 8.47522 23.2572 8.14199 22.8368 7.91111C22.4164 7.68023 21.9445 7.55918 21.4649 7.55918C20.9853 7.55918 20.5134 7.68023 20.093 7.91111C19.6726 8.14199 19.3173 8.47522 19.0599 8.87996C18.5702 9.69692 18.3271 10.638 18.3599 11.59C18.3245 12.5396 18.5603 13.4796 19.0399 14.3C19.2973 14.7047 19.6526 15.038 20.073 15.2688C20.4934 15.4997 20.9653 15.6208 21.4449 15.6208C21.9245 15.6208 22.3964 15.4997 22.8168 15.2688C23.2372 15.038 23.5926 14.7047 23.8499 14.3C24.3396 13.483 24.5827 12.5419 24.5499 11.59Z" fill="#134E4A"/>
<path d="M30.6303 3.42002C30.6344 3.56429 30.6091 3.70788 30.5558 3.84201C30.5025 3.97613 30.4223 4.09796 30.3203 4.20002C30.2101 4.30581 30.08 4.38858 29.9375 4.44352C29.795 4.49846 29.643 4.52446 29.4903 4.52002C29.3405 4.52522 29.1913 4.4995 29.0519 4.44444C28.9126 4.38938 28.7861 4.30617 28.6803 4.20002C28.5716 4.10208 28.4857 3.98145 28.4286 3.84668C28.3716 3.7119 28.3449 3.56626 28.3503 3.42002C28.3472 3.27113 28.3749 3.12319 28.4317 2.98552C28.4885 2.84784 28.5731 2.72341 28.6803 2.62002C28.7879 2.51709 28.915 2.43666 29.0541 2.38343C29.1932 2.33021 29.3415 2.30525 29.4903 2.31002C29.6474 2.30777 29.8034 2.33666 29.9493 2.39502C30.0952 2.45337 30.2281 2.54004 30.3403 2.65002C30.5329 2.85951 30.6369 3.13551 30.6303 3.42002ZM30.4203 16.21C30.4468 16.3409 30.4418 16.4761 30.4056 16.6046C30.3693 16.7331 30.303 16.8511 30.2121 16.9489C30.1212 17.0466 30.0083 17.1213 29.8828 17.1667C29.7573 17.2121 29.6227 17.227 29.4903 17.21C29.364 17.2185 29.2374 17.1986 29.1198 17.1519C29.0021 17.1052 28.8964 17.0328 28.8103 16.94C28.7225 16.849 28.6548 16.7405 28.6118 16.6217C28.5687 16.5028 28.5512 16.3761 28.5603 16.25V7.01002C28.5603 6.37002 28.8703 6.01002 29.4903 6.01002C29.7471 6.00032 29.9977 6.08984 30.1903 6.26002C30.3504 6.46491 30.432 6.72027 30.4203 6.98002V16.21Z" fill="#134E4A"/>
<path d="M36.8301 6.90995C36.8301 7.42995 36.5201 7.68995 35.8901 7.68995H35.1301V16.21C35.1566 16.3408 35.1515 16.4761 35.1153 16.6046C35.0791 16.7331 35.0128 16.8511 34.9219 16.9488C34.831 17.0466 34.7181 17.1213 34.5926 17.1667C34.467 17.2121 34.3325 17.2269 34.2001 17.21C34.0738 17.2184 33.9472 17.1986 33.8295 17.1519C33.7119 17.1052 33.6062 17.0327 33.5201 16.94C33.4323 16.849 33.3646 16.7405 33.3216 16.6216C33.2785 16.5027 33.2609 16.3761 33.2701 16.25V7.64996H32.5101C31.8901 7.64996 31.5801 7.38996 31.5801 6.86996C31.5801 6.34996 31.8901 6.08996 32.5101 6.08996H33.2701V3.72996C33.2701 3.07996 33.5801 2.72996 34.2001 2.72996C34.4569 2.72026 34.7075 2.80978 34.9001 2.97996C35.068 3.18063 35.1506 3.43912 35.1301 3.69996V6.05996H35.8901C36.5201 6.12996 36.8301 6.38995 36.8301 6.90995Z" fill="#134E4A"/>
<path d="M47.6196 16.29C47.6275 16.4142 47.6063 16.5385 47.5577 16.6531C47.509 16.7677 47.4344 16.8693 47.3396 16.95C47.1758 17.092 46.9663 17.1701 46.7496 17.17C46.5444 17.1783 46.3428 17.1146 46.1796 16.99C46.0786 16.9047 45.9989 16.797 45.9468 16.6755C45.8947 16.5539 45.8717 16.422 45.8796 16.29V15.54C45.5323 16.0436 45.0678 16.4552 44.5259 16.7392C43.9841 17.0231 43.3813 17.171 42.7696 17.17C42.0677 17.1919 41.3705 17.0496 40.7333 16.7545C40.0962 16.4593 39.5367 16.0195 39.0996 15.47C38.2621 14.3498 37.8096 12.9886 37.8096 11.59C37.8096 10.1913 38.2621 8.8302 39.0996 7.70998C39.5356 7.15345 40.0974 6.70827 40.7388 6.41101C41.3803 6.11375 42.0831 5.9729 42.7896 5.99999C43.3655 5.98959 43.9363 6.10922 44.4596 6.34998C44.9891 6.63292 45.4633 7.00893 45.8596 7.45998V6.87998C45.8504 6.7551 45.87 6.62978 45.9168 6.51364C45.9636 6.39751 46.0364 6.29363 46.1296 6.20998C46.2978 6.07013 46.5108 5.99558 46.7296 5.99999C46.954 5.99845 47.1723 6.0724 47.3496 6.20998C47.4363 6.29757 47.5035 6.40259 47.5466 6.5181C47.5897 6.63361 47.6078 6.75696 47.5996 6.87998L47.6196 16.29ZM45.8596 11.59C45.895 10.6404 45.6592 9.70034 45.1796 8.87998C44.9222 8.47524 44.5669 8.142 44.1465 7.91112C43.7261 7.68024 43.2542 7.55919 42.7746 7.55919C42.295 7.55919 41.8231 7.68024 41.4027 7.91112C40.9823 8.142 40.6269 8.47524 40.3696 8.87998C39.9171 9.71158 39.68 10.6432 39.68 11.59C39.68 12.5367 39.9171 13.4684 40.3696 14.3C40.6269 14.7047 40.9823 15.038 41.4027 15.2688C41.8231 15.4997 42.295 15.6208 42.7746 15.6208C43.2542 15.6208 43.7261 15.4997 44.1465 15.2688C44.5669 15.038 44.9222 14.7047 45.1796 14.3C45.6623 13.4809 45.8984 12.5399 45.8596 11.59Z" fill="#134E4A"/>
<path d="M51.7302 16.2101C51.7568 16.3409 51.7517 16.4762 51.7155 16.6047C51.6793 16.7332 51.613 16.8512 51.5221 16.9489C51.4312 17.0467 51.3183 17.1214 51.1927 17.1668C51.0672 17.2122 50.9327 17.227 50.8002 17.2101C50.6739 17.2185 50.5474 17.1987 50.4297 17.152C50.3121 17.1053 50.2063 17.0328 50.1202 16.9401C50.0324 16.8491 49.9648 16.7406 49.9217 16.6217C49.8786 16.5028 49.8611 16.3762 49.8702 16.2501V3.46006C49.8437 3.32922 49.8488 3.19396 49.885 3.06546C49.9212 2.93697 49.9875 2.81895 50.0784 2.72119C50.1693 2.62344 50.2822 2.54876 50.4078 2.50335C50.5333 2.45793 50.6678 2.44309 50.8002 2.46006C51.0557 2.4476 51.3062 2.5335 51.5002 2.70006C51.6603 2.90495 51.7419 3.16031 51.7302 3.42006V16.2101Z" fill="#134E4A"/>
<path d="M65.3402 3.95002H60.3402V8.95002H64.7702C64.9926 8.94127 65.2103 9.01619 65.3802 9.16002C65.4485 9.23009 65.5022 9.31301 65.5383 9.40399C65.5743 9.49496 65.592 9.59218 65.5902 9.69001C65.5947 9.78346 65.5803 9.87688 65.5476 9.96455C65.5149 10.0522 65.4648 10.1323 65.4002 10.2C65.3143 10.275 65.2144 10.3322 65.1063 10.3683C64.9981 10.4043 64.8839 10.4185 64.7702 10.41H60.3402V16.71C60.347 16.8074 60.3296 16.905 60.2895 16.994C60.2493 17.083 60.1877 17.1607 60.1102 17.22C59.9446 17.3576 59.7355 17.432 59.5202 17.43C59.3101 17.4397 59.1038 17.3721 58.9402 17.24C58.8534 17.183 58.7834 17.1038 58.7377 17.0106C58.692 16.9173 58.6721 16.8135 58.6802 16.71V3.54002C58.6665 3.40092 58.6848 3.26054 58.7335 3.12953C58.7822 2.99852 58.8601 2.88034 58.9613 2.78395C59.0625 2.68756 59.1844 2.61549 59.3176 2.57322C59.4508 2.53096 59.5919 2.5196 59.7302 2.54002H65.3402C65.5682 2.52229 65.7941 2.59402 65.9702 2.74002C66.1063 2.88274 66.1816 3.07279 66.1802 3.27002C66.182 3.36339 66.1642 3.45611 66.128 3.54222C66.0919 3.62832 66.0381 3.70591 65.9702 3.77002C65.8823 3.84021 65.7814 3.89227 65.6732 3.92317C65.5651 3.95407 65.4519 3.96319 65.3402 3.95002Z" fill="#0D9488"/>
<path d="M69.0496 16.2101C69.0761 16.3409 69.071 16.4762 69.0348 16.6047C68.9986 16.7332 68.9323 16.8512 68.8414 16.9489C68.7505 17.0467 68.6376 17.1214 68.5121 17.1668C68.3865 17.2122 68.252 17.227 68.1196 17.2101C67.9933 17.2185 67.8667 17.1987 67.749 17.152C67.6314 17.1053 67.5257 17.0328 67.4396 16.9401C67.3518 16.8491 67.2841 16.7406 67.2411 16.6217C67.198 16.5028 67.1804 16.3762 67.1896 16.2501V3.46006C67.1631 3.32922 67.1681 3.19396 67.2043 3.06546C67.2405 2.93697 67.3068 2.81895 67.3977 2.72119C67.4887 2.62344 67.6016 2.54876 67.7271 2.50335C67.8526 2.45793 67.9872 2.44309 68.1196 2.46006C68.375 2.4476 68.6255 2.5335 68.8196 2.70006C68.9797 2.90495 69.0612 3.16031 69.0496 3.42006V16.2101Z" fill="#0D9488"/>
<path d="M96.7704 6.92999C96.7693 7.19233 96.6652 7.44373 96.4804 7.62999C96.2382 7.83346 95.9259 7.93397 95.6104 7.90998C94.9355 7.93437 94.2968 8.22144 93.8304 8.70999C93.3345 9.37373 93.0932 10.1934 93.1504 11.02V16.21C93.177 16.3408 93.1719 16.4761 93.1357 16.6046C93.0995 16.7331 93.0332 16.8511 92.9423 16.9488C92.8514 17.0466 92.7385 17.1213 92.6129 17.1667C92.4874 17.2121 92.3529 17.2269 92.2204 17.21C92.0941 17.2185 91.9675 17.1986 91.8499 17.1519C91.7323 17.1052 91.6265 17.0328 91.5404 16.94C91.4526 16.849 91.385 16.7405 91.3419 16.6216C91.2988 16.5027 91.2813 16.3761 91.2904 16.25V7.00999C91.2904 6.36999 91.6004 6.00999 92.2204 6.00999C92.4772 6.00029 92.7279 6.08981 92.9204 6.25999C93.0805 6.46488 93.1621 6.72024 93.1504 6.97999V7.89999C93.3913 7.4512 93.6833 7.03175 94.0204 6.64999C94.1883 6.45746 94.3937 6.30135 94.6242 6.19128C94.8547 6.08121 95.1052 6.01951 95.3604 6.00999C95.7122 6.00668 96.0581 6.10008 96.3604 6.28C96.4785 6.34448 96.5781 6.43802 96.6498 6.55177C96.7216 6.66552 96.7631 6.7957 96.7704 6.92999Z" fill="#0D9488"/>
<path d="M100.25 3.42005C100.255 3.56432 100.229 3.70791 100.176 3.84203C100.123 3.97615 100.042 4.09799 99.9404 4.20005C99.8302 4.30583 99.7001 4.3886 99.5576 4.44355C99.415 4.49849 99.263 4.52449 99.1104 4.52004C98.9604 4.52711 98.8106 4.50224 98.671 4.44707C98.5313 4.3919 98.405 4.30771 98.3004 4.20005C98.1898 4.10304 98.102 3.98283 98.0433 3.84801C97.9845 3.71319 97.9562 3.56706 97.9604 3.42005C97.9603 3.27085 97.9902 3.12316 98.0485 2.98581C98.1068 2.84847 98.1921 2.72428 98.2995 2.62067C98.4068 2.51706 98.534 2.43614 98.6733 2.38277C98.8126 2.3294 98.9613 2.30467 99.1104 2.31005C99.4166 2.30269 99.7139 2.41373 99.9404 2.62004C100.043 2.72582 100.123 2.85115 100.177 2.98858C100.23 3.126 100.255 3.27273 100.25 3.42005ZM100.04 16.21C100.067 16.3409 100.062 16.4762 100.026 16.6046C99.9894 16.7331 99.9231 16.8511 99.8322 16.9489C99.7413 17.0467 99.6284 17.1213 99.5029 17.1668C99.3773 17.2122 99.2428 17.227 99.1104 17.21C98.9841 17.2185 98.8575 17.1987 98.7398 17.152C98.6222 17.1052 98.5164 17.0328 98.4304 16.94C98.3426 16.849 98.2749 16.7406 98.2318 16.6217C98.1888 16.5028 98.1712 16.3762 98.1804 16.25V7.01004C98.1804 6.37004 98.4904 6.01004 99.1104 6.01004C99.3671 6.00034 99.6178 6.08987 99.8104 6.26004C99.9705 6.46493 100.052 6.72029 100.04 6.98005V16.21Z" fill="#0D9488"/>
<path d="M109.63 7.93001C109.634 8.02821 109.618 8.12631 109.582 8.21772C109.546 8.30912 109.49 8.39173 109.42 8.46001C109.242 8.61021 109.012 8.6855 108.78 8.67002C108.78 8.67002 108.28 8.42001 107.38 7.93001C106.918 7.67613 106.397 7.54852 105.87 7.56002C105.379 7.54333 104.894 7.66459 104.47 7.91001C104.293 8.0095 104.147 8.15507 104.046 8.33118C103.946 8.50729 103.895 8.70734 103.9 8.91001C103.9 9.45001 104.84 10.08 106.72 10.8C107.582 11.0762 108.391 11.4991 109.11 12.05C109.36 12.2739 109.552 12.5553 109.67 12.87C109.792 13.1894 109.856 13.528 109.86 13.87C109.875 14.257 109.808 14.6428 109.665 15.0027C109.523 15.3626 109.306 15.6887 109.03 15.96C108.637 16.3486 108.157 16.6368 107.63 16.8C107.046 17.0104 106.43 17.1154 105.81 17.11C104.768 17.1416 103.736 16.9076 102.81 16.43C101.98 16 101.56 15.53 101.56 15.04C101.558 14.9306 101.578 14.8218 101.619 14.7204C101.661 14.619 101.722 14.527 101.8 14.45C101.866 14.3756 101.948 14.3166 102.039 14.2769C102.131 14.2372 102.23 14.2178 102.33 14.22C102.81 14.3551 103.261 14.5789 103.66 14.88C104.315 15.3161 105.083 15.5523 105.87 15.56C106.433 15.5855 106.988 15.4237 107.45 15.1C107.624 14.9953 107.77 14.8493 107.875 14.6749C107.979 14.5006 108.039 14.3031 108.05 14.1C108.05 13.48 107.43 12.9 106.18 12.37C105.084 11.9408 104.022 11.4328 103 10.85C102.683 10.6228 102.427 10.322 102.253 9.97359C102.078 9.62514 101.992 9.23951 102 8.85001V8.65001C102 8.54001 102.07 8.46002 102.09 8.42002C102.186 8.05135 102.358 7.70653 102.593 7.40714C102.829 7.10774 103.124 6.86021 103.46 6.68001C104.18 6.25322 105.003 6.03188 105.84 6.04001C106.71 6.04383 107.57 6.23482 108.36 6.60001C109.22 6.94001 109.63 7.40001 109.63 7.93001Z" fill="#0D9488"/>
<path d="M115.65 6.91003C115.65 7.43003 115.34 7.69003 114.72 7.69003H113.96V16.21C113.987 16.3418 113.982 16.4781 113.945 16.6075C113.909 16.7369 113.841 16.8556 113.749 16.9536C113.657 17.0515 113.543 17.126 113.416 17.1706C113.289 17.2153 113.153 17.2288 113.02 17.21C112.894 17.2185 112.767 17.1987 112.65 17.1519C112.532 17.1052 112.426 17.0328 112.34 16.94C112.254 16.8477 112.188 16.739 112.145 16.6205C112.102 16.5019 112.083 16.3759 112.09 16.25V7.65004H111.34C110.72 7.65004 110.41 7.39004 110.41 6.87004C110.41 6.35004 110.72 6.09004 111.34 6.09004H112.1V3.73004C112.1 3.08004 112.41 2.73004 113.03 2.73004C113.158 2.72194 113.286 2.73993 113.406 2.78291C113.526 2.8259 113.637 2.89297 113.73 2.98004C113.902 3.17918 113.988 3.43783 113.97 3.70004V6.06004H114.73C115.343 6.10671 115.65 6.39003 115.65 6.91003Z" fill="#0D9488"/>
<path d="M124.45 7.92998C124.455 8.02818 124.439 8.12628 124.403 8.21768C124.366 8.30909 124.311 8.3917 124.24 8.45998C124.062 8.61018 123.833 8.68546 123.6 8.66999C123.6 8.66999 123.11 8.41998 122.2 7.92998C121.741 7.67781 121.224 7.55025 120.7 7.55999C120.207 7.54195 119.718 7.66324 119.29 7.90998C119.114 8.00947 118.967 8.15504 118.867 8.33115C118.767 8.50726 118.716 8.70731 118.72 8.90998C118.72 9.44998 119.66 10.08 121.54 10.8C122.405 11.0788 123.216 11.5014 123.94 12.05C124.184 12.2772 124.373 12.5579 124.49 12.87C124.612 13.1894 124.677 13.528 124.68 13.87C124.698 14.2572 124.633 14.6438 124.49 15.004C124.346 15.3643 124.129 15.6901 123.85 15.96C123.46 16.3463 122.984 16.6342 122.46 16.8C121.873 17.0095 121.254 17.1145 120.63 17.11C119.588 17.1447 118.555 16.9105 117.63 16.43C116.79 16 116.37 15.53 116.37 15.04C116.368 14.9305 116.389 14.8218 116.43 14.7204C116.471 14.619 116.532 14.527 116.61 14.45C116.677 14.3761 116.759 14.3174 116.85 14.2777C116.942 14.2381 117.041 14.2184 117.14 14.22C117.621 14.3551 118.072 14.5789 118.47 14.88C119.125 15.3161 119.893 15.5523 120.68 15.56C121.246 15.5854 121.805 15.4238 122.27 15.1C122.442 14.9935 122.586 14.8468 122.688 14.6726C122.791 14.4985 122.85 14.302 122.86 14.1C122.86 13.48 122.24 12.9 120.99 12.37C119.898 11.9418 118.838 11.4337 117.82 10.85C117.502 10.624 117.245 10.3235 117.071 9.97473C116.896 9.626 116.81 9.23975 116.82 8.84998V8.64998C116.82 8.53998 116.89 8.45999 116.91 8.41999C117.01 8.04052 117.189 7.6865 117.435 7.38137C117.682 7.07623 117.99 6.82693 118.34 6.64998C119.06 6.2232 119.883 6.00185 120.72 6.00998C121.591 6.0138 122.45 6.20479 123.24 6.56998C124.04 6.93998 124.45 7.39998 124.45 7.92998Z" fill="#0D9488"/>
<path d="M73.2602 2.83C75.9902 1.89 78.4902 2.89 80.1002 5.83C80.4561 5.21114 80.8714 4.6284 81.3402 4.09001C81.5457 4.47732 81.6457 4.91184 81.6302 5.35001C80.9129 5.95067 80.3907 6.75138 80.1302 7.65001C79.7637 6.44494 78.9791 5.41022 77.9178 4.73196C76.8564 4.05371 75.5878 3.77644 74.3402 3.95001C74.3063 4.74356 74.3837 5.53796 74.5702 6.31001C74.1397 6.32787 73.7189 6.44418 73.3402 6.65001C72.9705 5.40704 72.9429 4.08736 73.2602 2.83Z" fill="#134E4A"/>
<path d="M80.0804 0C82.6704 1.26 83.7404 3.74 82.8004 7C83.4942 6.8173 84.2043 6.70341 84.9204 6.65999C84.7881 7.07665 84.5504 7.4521 84.2304 7.75C83.2948 7.66375 82.3546 7.85874 81.5304 8.31C82.1224 7.20176 82.3005 5.91902 82.033 4.69141C81.7655 3.4638 81.0698 2.37148 80.0704 1.61C79.4797 2.14228 78.9709 2.75893 78.5604 3.43999C78.5604 3.43999 77.8604 2.76 77.4404 2.72C78.0613 1.59352 78.973 0.654205 80.0804 0Z" fill="#0D9488"/>
<path d="M83.9001 9.77003C84.5198 10.1322 85.1026 10.5543 85.6401 11.03C85.2535 11.2373 84.8184 11.3374 84.3801 11.32C83.7822 10.5953 82.9812 10.066 82.0801 9.80003C83.1714 9.47238 84.1265 8.79859 84.8012 7.88038C85.4758 6.96217 85.8335 5.84938 85.8201 4.71003C85.8201 4.50003 85.8201 4.29003 85.8201 4.07003C85.8841 4.14545 85.9638 4.20599 86.0536 4.24744C86.1434 4.2889 86.2412 4.31026 86.3401 4.31004C86.5249 4.30745 86.7015 4.23287 86.8322 4.10215C86.9629 3.97143 87.0375 3.79489 87.0401 3.61004C87.0374 3.42613 86.9625 3.25063 86.8316 3.12151C86.7006 2.99239 86.524 2.92002 86.3401 2.92004C86.2111 2.91956 86.0845 2.95525 85.9748 3.02306C85.8651 3.09088 85.7765 3.18808 85.7193 3.30367C85.662 3.41926 85.6383 3.54859 85.6508 3.67698C85.6633 3.80537 85.7116 3.92769 85.7901 4.03004H85.2101C84.617 4.05219 84.0275 4.13257 83.4501 4.27003C83.4586 3.81975 83.3592 3.374 83.1601 2.97004C83.9336 2.748 84.7354 2.64019 85.5401 2.65003C86.0024 2.66569 86.4603 2.74649 86.9001 2.89004C87.0664 3.36512 87.1739 3.8588 87.2201 4.36004C87.4101 6.54004 86.3401 8.45003 83.9001 9.77003Z" fill="#0D9488"/>
<path d="M89.7299 9.74998C88.4699 12.34 85.9899 13.41 82.7299 12.46C82.9064 13.1547 83.0169 13.8645 83.0599 14.58C82.643 14.4534 82.2669 14.2188 81.9699 13.9C82.0564 12.9623 81.8651 12.0198 81.4199 11.19C82.5261 11.7871 83.8093 11.9691 85.0379 11.7032C86.2665 11.4373 87.3596 10.741 88.1199 9.73997C87.6009 9.15511 87.0016 8.64674 86.3399 8.22998C86.3399 8.22998 87.0299 7.52999 87.0599 7.10999C88.168 7.73796 89.0895 8.64903 89.7299 9.74998Z" fill="#134E4A"/>
<path d="M86.9702 16.65C84.2502 17.59 81.7402 16.59 80.1302 13.65C80.1302 13.65 80.0502 13.8 79.9102 14.01C79.6786 14.3816 79.4248 14.7389 79.1502 15.08C78.9718 15.071 78.8021 15.0003 78.6702 14.88C78.5928 14.6379 78.5623 14.3834 78.5802 14.13C78.81 13.9516 79.0181 13.7468 79.2002 13.52C79.6062 13.0199 79.9118 12.446 80.1002 11.83C80.4643 13.033 81.245 14.0672 82.3023 14.747C83.3596 15.4268 84.6244 15.7079 85.8702 15.54C85.9102 14.743 85.8327 13.9444 85.6402 13.17C86.0893 13.1782 86.5343 13.0824 86.9402 12.89C87.284 14.1184 87.2944 15.4162 86.9702 16.65Z" fill="#0D9488"/>
<path d="M80.1503 19.47C77.5603 18.21 76.4903 15.73 77.4403 12.52C76.7463 12.7017 76.0363 12.8156 75.3203 12.86C75.4457 12.4396 75.6804 12.06 76.0003 11.76C76.938 11.8464 77.8805 11.6552 78.7103 11.21C78.1132 12.3161 77.9312 13.5993 78.1971 14.8279C78.463 16.0565 79.1593 17.1496 80.1603 17.91C80.7496 17.3726 81.2582 16.7528 81.6703 16.07C81.6703 16.07 82.3703 16.76 82.7903 16.79C82.1637 17.9018 81.2526 18.8268 80.1503 19.47Z" fill="#134E4A"/>
<path d="M74.9101 15.58H74.3901C74.3805 15.4168 74.3805 15.2532 74.3901 15.09C74.3343 13.9187 74.6722 12.7623 75.35 11.8054C76.0279 10.8484 77.0066 10.146 78.1301 9.81002C77.2254 9.54589 76.4207 9.01639 75.8201 8.29001C75.382 8.27452 74.9474 8.37453 74.5601 8.58001C75.0976 9.05577 75.6804 9.4778 76.3001 9.84002C73.8001 11.21 72.7001 13.23 73.0101 15.48C73.0663 15.8887 73.1634 16.2908 73.3001 16.68C73.7754 16.833 74.2709 16.9139 74.7701 16.92C75.5456 16.9381 76.3199 16.8472 77.0701 16.65C76.8706 16.2426 76.7712 15.7935 76.7801 15.34C76.1679 15.4909 75.5405 15.5714 74.9101 15.58ZM73.9101 16.76C73.7855 16.76 73.6637 16.7231 73.5601 16.6538C73.4565 16.5846 73.3758 16.4862 73.3281 16.3711C73.2804 16.256 73.2679 16.1293 73.2922 16.0071C73.3165 15.8849 73.3765 15.7726 73.4646 15.6845C73.5527 15.5964 73.665 15.5364 73.7872 15.5121C73.9094 15.4878 74.0361 15.5003 74.1512 15.548C74.2663 15.5956 74.3647 15.6764 74.4339 15.78C74.5032 15.8836 74.5401 16.0054 74.5401 16.13C74.5401 16.2971 74.4737 16.4573 74.3556 16.5755C74.2374 16.6936 74.0772 16.76 73.9101 16.76Z" fill="#0D9488"/>
<path d="M72.0104 9.85995C72.5416 10.4491 73.1585 10.9548 73.8404 11.36C73.8404 11.36 73.1604 12.0699 73.1304 12.4899C72.015 11.8648 71.0864 10.9535 70.4404 9.84995C71.7004 7.25995 74.1804 6.18994 77.4404 7.12994C77.4404 7.12994 77.3604 6.83994 77.2804 6.43994C77.1897 6.02491 77.1296 5.60378 77.1004 5.17995C77.1497 5.13768 77.2033 5.1008 77.2604 5.06995C77.6175 5.20023 77.937 5.41663 78.1904 5.69995C78.1761 5.90303 78.1761 6.10687 78.1904 6.30995C78.2341 7.03974 78.4318 7.75202 78.7704 8.39995C77.656 7.79153 76.3599 7.60425 75.1188 7.8723C73.8777 8.14034 72.7744 8.84584 72.0104 9.85995Z" fill="#0D9488"/>
<path d="M86.34 2.40002C86.0569 2.40118 85.7836 2.5041 85.57 2.69002C85.4338 2.8012 85.3244 2.94166 85.25 3.10094C85.1756 3.26021 85.138 3.43423 85.14 3.61003C85.1363 3.74996 85.1601 3.88925 85.21 4.02002C85.3103 4.28239 85.4988 4.50169 85.7431 4.6403C85.9874 4.77892 86.2724 4.8282 86.5491 4.77972C86.8257 4.73125 87.0769 4.58802 87.2596 4.3746C87.4422 4.16118 87.5449 3.89088 87.55 3.61003C87.55 3.28912 87.4225 2.98134 87.1956 2.75443C86.9687 2.52751 86.6609 2.40002 86.34 2.40002ZM86.34 4.31003C86.2411 4.31025 86.1433 4.28889 86.0535 4.24744C85.9637 4.20599 85.884 4.14544 85.82 4.07002C85.7415 3.96768 85.6932 3.84537 85.6807 3.71698C85.6682 3.58859 85.6919 3.45926 85.7492 3.34367C85.8065 3.22809 85.895 3.13086 86.0047 3.06305C86.1145 2.99524 86.241 2.95954 86.37 2.96002C86.554 2.96 86.7305 3.03238 86.8615 3.1615C86.9925 3.29062 87.0674 3.46611 87.07 3.65002C87.0572 3.83304 86.974 4.00398 86.8379 4.12701C86.7018 4.25005 86.5234 4.31565 86.34 4.31003Z" fill="#0D9488"/>
<path d="M74.91 15.58C74.7896 15.3551 74.5954 15.1785 74.36 15.08C74.2177 15.0196 74.0646 14.9889 73.91 14.99C73.7281 14.9908 73.5489 15.0347 73.3873 15.1181C73.2256 15.2015 73.086 15.3222 72.98 15.47C72.8589 15.6406 72.787 15.8413 72.7723 16.05C72.7577 16.2587 72.8007 16.4674 72.8967 16.6533C72.9928 16.8392 73.1381 16.9951 73.3168 17.1038C73.4956 17.2126 73.7008 17.2701 73.91 17.27C74.2124 17.27 74.5023 17.1499 74.7161 16.9361C74.9299 16.7223 75.05 16.4324 75.05 16.13C75.0513 15.9377 75.0031 15.7483 74.91 15.58ZM73.91 15.5C74.0346 15.5 74.1564 15.537 74.26 15.6062C74.3636 15.6754 74.4444 15.7738 74.4921 15.8889C74.5397 16.004 74.5522 16.1307 74.5279 16.2529C74.5036 16.3751 74.4436 16.4874 74.3555 16.5755C74.2674 16.6636 74.1551 16.7236 74.0329 16.7479C73.9107 16.7722 73.784 16.7597 73.6689 16.7121C73.5538 16.6644 73.4554 16.5836 73.3862 16.48C73.317 16.3764 73.28 16.2546 73.28 16.13C73.28 15.9629 73.3464 15.8027 73.4645 15.6845C73.5827 15.5664 73.7429 15.5 73.91 15.5Z" fill="#0D9488"/>
<path d="M79.9602 14.29C79.9602 14.4969 79.878 14.6953 79.7318 14.8416C79.5855 14.9879 79.3871 15.07 79.1802 15.07C79.0019 15.0611 78.8322 14.9904 78.7002 14.87C78.5781 14.7677 78.4907 14.6299 78.4501 14.4758C78.4096 14.3217 78.4179 14.1587 78.4738 14.0095C78.5298 13.8603 78.6307 13.7321 78.7626 13.6426C78.8945 13.5532 79.0509 13.5069 79.2102 13.51C79.364 13.5115 79.5137 13.5589 79.6403 13.6463C79.7668 13.7336 79.8643 13.8568 79.9202 14C79.9488 14.094 79.9623 14.1919 79.9602 14.29Z" fill="#0D9488"/>
<path d="M78.3403 5.74997C78.3392 5.85546 78.3165 5.95959 78.2735 6.05592C78.2305 6.15226 78.1681 6.23873 78.0903 6.30997C77.9492 6.44974 77.7589 6.52871 77.5603 6.52997C77.4346 6.53103 77.3107 6.50005 77.2003 6.43996C77.074 6.37424 76.9681 6.2752 76.894 6.15356C76.82 6.03193 76.7807 5.89236 76.7803 5.74997C76.7793 5.64362 76.8001 5.53818 76.8414 5.44016C76.8827 5.34213 76.9436 5.25359 77.0203 5.17996C77.0696 5.13769 77.1232 5.10082 77.1803 5.06996C77.2967 5.00556 77.4273 4.97119 77.5603 4.96997C77.6627 4.96997 77.7642 4.99014 77.8588 5.02934C77.9534 5.06854 78.0394 5.126 78.1118 5.19843C78.1843 5.27085 78.2417 5.35684 78.2809 5.45148C78.3201 5.54611 78.3403 5.64754 78.3403 5.74997Z" fill="#0D9488"/>
</g>
<defs>
<clipPath id="clip0_617_463">
<rect width="124.68" height="21.3" fill="white"/>
</clipPath>
</defs>
</svg>
